<svg clip-rule="evenodd" fill-rule="evenodd" stroke-linejoin="round" stroke-miterlimit="1.41421" viewBox="0 0 333 333" xmlns="http://www.w3.org/2000/svg"><g fill-rule="nonzero"><path d="m166.634 333c.709-.413 1.539-.861 2.343-1.343 22.051-12.962 42.298-28.317 60.861-45.897 1.189-1.121 2.102-2.42 2.837-3.857 1.191-2.345 2.399-4.676 3.542-7.044 8.787-18.256 10.672-37.185 4.838-56.64-11.333-37.812-47.796-59.51-84.303-54.951-10.434 1.306-20.197 4.628-29.294 9.735-17.401 9.78-35.951 13.808-55.806 11.907-9.742-.931-19.074-3.42-28.024-7.351-7.057-3.094-13.601-7.031-19.677-11.761-.43-.322-.905-.581-1.697-1.096.267.869.373 1.351.543 1.802 7.806 19.896 17.466 38.847 28.952 56.866 12.392 19.458 26.658 37.423 42.78 53.921 16.121 16.495 33.766 31.167 52.922 44.014 8.425 5.658 16.586 10.643 19.183 11.695z" fill="#28bcae"/><path d="m258.116 254.75c.963-.457 1.337-1.191 1.819-1.786 7.048-8.76 13.638-17.859 19.752-27.297 21.943-33.927 37.262-70.611 45.788-110.11 2.902-13.421 4.949-26.965 6.145-40.645.824-9.313 1.278-18.632 1.286-27.981 0-.641-.064-1.29-.106-1.928-.908-.531-1.71-1.022-2.535-1.491-7.185-4.054-14.494-7.854-21.964-11.345-10.775-5.027-21.71-9.676-33.067-13.246-13.831-4.332-27.798-4.811-41.9-1.414-40.113 9.671-65.749 48.938-58.156 89.488 4.214 22.476 16.268 39.823 35.617 52.069 1.29.818 2.615 1.59 3.927 2.389 14.127 8.647 25.202 20.233 33.111 34.782 8.32 15.296 12.061 31.672 11.1 49.082-.171 3.049-.526 6.089-.817 9.433z" fill="#6ab1e2"/><path d="m0 45.037v2.167c.005 12.852.847 25.655 2.381 38.418 1.387 11.519 3.39 22.935 5.986 34.249.457 1.992 1.078 3.899 1.951 5.767 15.706 33.425 52.098 51.201 88.184 43.034 27.512-6.227 49.81-27.434 57.464-54.582 2.116-7.504 2.837-15.171 3.071-22.916.159-5.112.641-10.187 1.597-15.213 5.872-30.747 26.436-56.157 55.24-68.212 1.615-.672 3.263-1.271 4.886-1.92.233-.087.6-.116.493-.538-4.522-1.616-31.712-4.327-48.013-4.644-34.968-.693-69.246 3.907-102.771 13.954-24.616 7.376-48.056 17.496-70.469 30.436z" fill="#f6a71c"/></g></svg>